<svg id="visual" viewBox="0 0 900 600" width="900" height="600" xmlns="http://www.w3.org/2000/svg" xmlns:xlink="http://www.w3.org/1999/xlink" version="1.1"><rect x="0" y="0" width="900" height="600" fill="#fff"></rect><defs><linearGradient id="grad1_0" x1="33.3%" y1="0%" x2="100%" y2="100%"><stop offset="20%" stop-color="#181d60" stop-opacity="1"></stop><stop offset="80%" stop-color="#181d60" stop-opacity="1"></stop></linearGradient></defs><defs><linearGradient id="grad1_1" x1="33.3%" y1="0%" x2="100%" y2="100%"><stop offset="20%" stop-color="#181d60" stop-opacity="1"></stop><stop offset="80%" stop-color="#ffffff" stop-opacity="1"></stop></linearGradient></defs><defs><linearGradient id="grad2_0" x1="0%" y1="0%" x2="66.7%" y2="100%"><stop offset="20%" stop-color="#181d60" stop-opacity="1"></stop><stop offset="80%" stop-color="#181d60" stop-opacity="1"></stop></linearGradient></defs><defs><linearGradient id="grad2_1" x1="0%" y1="0%" x2="66.7%" y2="100%"><stop offset="20%" stop-color="#ffffff" stop-opacity="1"></stop><stop offset="80%" stop-color="#181d60" stop-opacity="1"></stop></linearGradient></defs><g transform="translate(900, 0)"><path d="M0 324.5C-52.4 309 -104.8 293.6 -155 268.5C-205.2 243.4 -253.1 208.6 -281 162.2C-308.9 115.9 -316.7 57.9 -324.5 0L0 0Z" fill="#8d85ad"></path><path d="M0 162.2C-26.2 154.5 -52.4 146.8 -77.5 134.2C-102.6 121.7 -126.6 104.3 -140.5 81.1C-154.5 57.9 -158.4 29 -162.2 0L0 0Z" fill="#181d60"></path></g><g transform="translate(0, 600)"><path d="M0 -324.5C47.6 -300.7 95.2 -276.9 146 -252.9C196.8 -228.8 250.7 -204.4 281 -162.2C311.3 -120.1 317.9 -60 324.5 0L0 0Z" fill="#8d85ad"></path><path d="M0 -162.2C23.8 -150.4 47.6 -138.5 73 -126.4C98.4 -114.4 125.4 -102.2 140.5 -81.1C155.7 -60 159 -30 162.2 0L0 0Z" fill="#181d60"></path></g></svg>