<svg id="visual" viewBox="0 0 900 600" width="900" height="600" xmlns="http://www.w3.org/2000/svg" xmlns:xlink="http://www.w3.org/1999/xlink" version="1.1"><rect x="0" y="0" width="900" height="600" fill="#000111"></rect><path d="M423 0L359.7 50C296.3 100 169.7 200 119.5 300C69.3 400 95.7 500 108.8 550L122 600L0 600L0 550C0 500 0 400 0 300C0 200 0 100 0 50L0 0Z" fill="#0e554b"></path><path d="M242 0L204.5 50C167 100 92 200 78.3 300C64.7 400 112.3 500 136.2 550L160 600L0 600L0 550C0 500 0 400 0 300C0 200 0 100 0 50L0 0Z" fill="#001523"></path></svg>